# xmcd
#
# Track frame offsets: 
#        150
#        21445
#        45355
#        63202
#        82452
#        100772
#        118757
#        134465
#        153812
#        169547
#
# Disc length: 2555 seconds
#
# Revision: 5
# Processed by: cddbd v1.5.1PL0 Copyright (c) Steve Scherf et al.
# Submitted via: ExactAudioCopy v0.95a5
#
DISCID=7c09f90a
DTITLE=Radney Foster - See What You Want To See
DYEAR=1998
DGENRE=Country
TTITLE0=I've Got A Picture
TTITLE1=I'm In (with Abra Moore)
TTITLE2=Raining On Sunday
TTITLE3=Folding Money
TTITLE4=Angry Heart
TTITLE5=The Kiss
TTITLE6=You Were So Right
TTITLE7=God Knows When
TTITLE8=The Lucky Ones
TTITLE9=Godspeed (Sweet Dreams)
EXTD=p&c 1999 arista records\nwww.arista.com
EXTT0=
EXTT1=
EXTT2=
EXTT3=
EXTT4=
EXTT5=
EXTT6=
EXTT7=
EXTT8=
EXTT9=
PLAYORDER=
